<?xml version="1.0" encoding="UTF-8"?>
<svg width="24" height="24" viewBox="0 0 24 24" fill="none" xmlns="http://www.w3.org/2000/svg">
  <path d="M17.0425 12.2025C17.0139 9.34808 19.4159 7.95105 19.5279 7.88465C18.2523 6.06609 16.2641 5.80104 15.5675 5.77504C13.8824 5.59836 12.2523 6.79092 11.3935 6.79092C10.5151 6.79092 9.18511 5.79705 7.77308 5.82905C5.93451 5.86105 4.22497 6.91695 3.28739 8.54686C1.35364 11.8747 2.79168 16.7843 4.64625 19.5907C5.56783 20.9647 6.64973 22.4968 8.09977 22.4448C9.51779 22.3868 10.0576 21.5344 11.7687 21.5344C13.4602 21.5344 13.9641 22.4448 15.4401 22.4128C16.9642 22.3868 17.9018 21.0127 18.7874 19.6287C19.8433 18.0508 20.2752 16.5027 20.2952 16.4247C20.2552 16.4087 17.0745 15.1522 17.0425 12.2025Z" fill="black"/>
  <path d="M14.7278 3.6875C15.4884 2.75592 16.0083 1.47536 15.8643 0.179688C14.7478 0.227687 13.3878 0.931695 12.5992 1.83927C11.8947 2.64766 11.2708 3.96022 11.4388 5.2208C12.6824 5.3208 13.9392 4.60108 14.7278 3.6875Z" fill="black"/>
</svg> 