<svg xmlns="http://www.w3.org/2000/svg" xmlns:xlink="http://www.w3.org/1999/xlink" viewBox="0,0,256,256" width="24px" height="24px" fill-rule="nonzero"><g fill="#000000" fill-rule="nonzero" stroke="none" stroke-width="1" stroke-linecap="butt" stroke-linejoin="miter" stroke-miterlimit="10" stroke-dasharray="" stroke-dashoffset="0" font-family="none" font-weight="none" font-size="none" text-anchor="none" style="mix-blend-mode: normal"><g transform="scale(10.66667,10.66667)"><path d="M4,3c-1.09306,0 -2,0.90694 -2,2v16h14h6v-12c0,-1.09306 -0.90694,-2 -2,-2h-4v-2c0,-1.09306 -0.90694,-2 -2,-2zM4,5h10v14h-10zM6,7v2h2v-2zM10,7v2h2v-2zM16,9h4v10h-4v-2h2v-2h-2v-2h2v-2h-2zM6,11v2h2v-2zM10,11v2h2v-2zM6,15v2h2v-2zM10,15v2h2v-2z"></path></g></g></svg>