<svg xmlns="http://www.w3.org/2000/svg" xmlns:xlink="http://www.w3.org/1999/xlink" viewBox="0,0,256,256" width="48px" height="48px" fill-rule="nonzero"><g fill="#000000" fill-rule="nonzero" stroke="none" stroke-width="1" stroke-linecap="butt" stroke-linejoin="miter" stroke-miterlimit="10" stroke-dasharray="" stroke-dashoffset="0" font-family="none" font-weight="none" font-size="none" text-anchor="none" style="mix-blend-mode: normal"><g transform="scale(4,4)"><path d="M53.41,10.59c0.56,0.56 0.74,1.39 0.46,2.13l-16.23,42c-0.3,0.76 -1.035,1.27 -1.855,1.28c-0.8,0 -1.545,-0.48 -1.855,-1.22l-4.566,-10.848c-0.521,-1.238 -0.386,-2.654 0.359,-3.771l9.007,-13.501c0.6,-0.91 -0.48,-1.99 -1.39,-1.39l-13.501,9.006c-1.117,0.745 -2.534,0.88 -3.771,0.359l-10.848,-4.565c-0.75,-0.32 -1.23,-1.06 -1.22,-1.87c0.01,-0.82 0.52,-1.54 1.28,-1.84l42,-16.23c0.74,-0.28 1.57,-0.1 2.13,0.46z"></path></g></g></svg>