<svg xmlns="http://www.w3.org/2000/svg" viewBox="0 0 240 240">
  <circle cx="120" cy="120" r="120" fill="#25D366"/>
  <path fill="#FFF" d="M164.5 75.2A62.4 62.4 0 0 0 120.1 56.8c-34.6 0-62.8 28.2-62.8 62.8 0 11.1 2.9 21.9 8.4 31.4L56.8 183l32.8-8.6a62.7 62.7 0 0 0 30.4 7.8h.1c34.6 0 62.8-28.2 62.8-62.8a62.4 62.4 0 0 0-18.4-44.2zm-44.4 96.6h-.1a52.1 52.1 0 0 1-26.6-7.3l-1.9-1.1-19.7 5.2 5.3-19.2-1.3-2a52 52 0 0 1-8-27.8c0-28.8 23.4-52.2 52.3-52.2a52 52 0 0 1 52.2 52.3c0 28.8-23.4 52.1-52.2 52.1zm28.7-39.1c-1.6-.8-9.3-4.6-10.7-5.1s-2.5-.8-3.5.8-4 5.1-5 6.2-1.8 1.2-3.4.4a42.8 42.8 0 0 1-12.6-7.8 47.6 47.6 0 0 1-8.7-10.9c-.9-1.6-.1-2.4.7-3.2s1.6-1.8 2.4-2.8a10.8 10.8 0 0 0 1.5-2.6 2.9 2.9 0 0 0-.1-2.7c-.4-.8-3.5-8.5-4.8-11.7s-2.6-2.6-3.5-2.7h-3a5.8 5.8 0 0 0-4.2 2c-1.4 1.5-5.5 5.4-5.5 13.1s5.6 15.2 6.4 16.3 11.1 16.9 26.8 23.7a90.6 90.6 0 0 0 8.9 3.3 21.5 21.5 0 0 0 9.9.6c3-.4 9.3-3.8 10.6-7.5s1.3-6.8.9-7.5-1.4-1.1-3-1.9z"/>
</svg>
